<svg width="16" height="16" viewBox="0 0 16 16" fill="none" xmlns="http://www.w3.org/2000/svg">
<g id="Icons / close" clip-path="url(#clip0_1120_835)">
<path id="Vector" d="M8 0C3.592 0 0 3.592 0 8C0 12.408 3.592 16 8 16C12.408 16 16 12.408 16 8C16 3.592 12.408 0 8 0ZM10.696 9.664C10.984 9.952 10.984 10.408 10.696 10.696C10.552 10.84 10.368 10.912 10.184 10.912C10 10.912 9.808 10.84 9.672 10.696L8 9.032L6.336 10.696C6.192 10.84 6.008 10.912 5.824 10.912C5.64 10.912 5.448 10.84 5.312 10.696C5.024 10.408 5.024 9.952 5.312 9.664L6.968 8L5.304 6.336C5.016 6.048 5.016 5.592 5.304 5.304C5.592 5.016 6.048 5.016 6.336 5.304L8 6.968L9.664 5.304C9.952 5.016 10.408 5.016 10.696 5.304C10.984 5.592 10.984 6.048 10.696 6.336L9.032 8L10.696 9.664Z" fill="#909090"/>
</g>
<defs>
<clipPath id="clip0_1120_835">
<rect width="16" height="16" fill="white"/>
</clipPath>
</defs>
</svg>
