<svg width="20" height="20" viewBox="0 0 20 20" fill="none" xmlns="http://www.w3.org/2000/svg">
<g id="Group">
<path id="Vector" d="M8.44 4.34C8.95 4.22 9.47 4.16 10 4.16C14.48 4.16 17.43 8.65 18.21 9.99C17.78 10.74 17.28 11.45 16.72 12.11C16.42 12.46 16.47 12.99 16.82 13.28C16.98 13.41 17.17 13.48 17.36 13.48C17.6 13.48 17.83 13.38 18 13.18C18.73 12.32 19.37 11.37 19.9 10.38C20.03 10.14 20.03 9.86 19.91 9.61C19.77 9.34 16.28 2.5 10 2.5C9.37 2.53 8.69 2.57 8.06 2.72C7.61 2.82 7.33 3.27 7.44 3.72C7.54 4.17 7.99 4.45 8.44 4.34Z" fill="#909090"/>
<path id="Vector_2" d="M19.76 18.58L1.41999 0.24C1.09999 -0.08 0.569992 -0.08 0.239992 0.24C-0.0900073 0.57 -0.0900073 1.09 0.239992 1.42L3.81999 5C2.30999 6.3 1.04999 7.84 0.0999926 9.61C-0.0300073 9.85 -0.0300073 10.13 0.0899926 10.38C0.239992 10.67 3.72999 17.51 10.02 17.51C11.76 17.48 13.42 16.98 14.86 16.04L18.58 19.76C18.74 19.92 18.96 20 19.17 20C19.38 20 19.6 19.92 19.76 19.76C20.08 19.43 20.08 18.9 19.76 18.58ZM8.35998 9.54L10.46 11.64C9.89998 11.82 9.25998 11.71 8.79998 11.28C8.30998 10.82 8.15998 10.14 8.35998 9.54ZM9.99998 15.83C5.51999 15.83 2.56999 11.34 1.78999 10C2.62999 8.54 3.71999 7.27 4.99999 6.18L7.10999 8.29C6.27999 9.62 6.46999 11.39 7.65999 12.5C8.29998 13.1 9.11998 13.39 9.92998 13.39C10.55 13.39 11.16 13.21 11.69 12.87L13.63 14.81C12.53 15.46 11.29 15.81 9.99998 15.83Z" fill="#909090"/>
</g>
</svg>
