<svg width="20" height="20" viewBox="0 0 20 20" fill="none" xmlns="http://www.w3.org/2000/svg">
<g id="Group">
<path id="Vector" d="M10 0C4.49 0 0 4.49 0 10C0 15.51 4.49 20 10 20C15.51 20 20 15.51 20 10C20 4.49 15.51 0 10 0ZM10 18.18C5.49 18.18 1.82 14.51 1.82 10C1.82 5.49 5.49 1.82 10 1.82C14.51 1.82 18.18 5.49 18.18 10C18.18 14.51 14.51 18.18 10 18.18Z" fill="#909090"/>
<path id="Vector_2" d="M11.13 4.75005C10.21 4.43005 9.23002 4.48005 8.35002 4.90005C7.48002 5.32005 6.82002 6.05005 6.50002 6.97005C6.33002 7.44005 6.58002 7.96005 7.06002 8.13005C7.53002 8.30005 8.05002 8.05005 8.22002 7.57005C8.38002 7.11005 8.71002 6.74005 9.15002 6.53005C9.59002 6.32005 10.08 6.29005 10.54 6.45005C11.27 6.71005 11.76 7.40005 11.75 8.17005C11.75 9.11005 10.19 9.85005 9.64002 10.04C9.16002 10.2 8.91002 10.71 9.07002 11.19C9.20002 11.57 9.55002 11.81 9.93002 11.81C10.02 11.81 10.12 11.79 10.22 11.76C10.56 11.65 13.57 10.57 13.57 8.17005C13.57 6.64005 12.59 5.26005 11.13 4.75005Z" fill="#909090"/>
<path id="Vector_3" d="M10.01 13.64C9.49998 13.64 9.09998 14.05 9.09998 14.55C9.09998 15.05 9.50998 15.46 10.01 15.46C10.51 15.46 10.92 15.05 10.92 14.55C10.92 14.05 10.51 13.64 10.01 13.64Z" fill="#909090"/>
</g>
</svg>
