<svg width="20" height="20" viewBox="0 0 20 20" fill="none" xmlns="http://www.w3.org/2000/svg">
<g id="Group">
<path id="Vector" d="M6.8999 17.9H2.8999C2.3499 17.9 1.8999 17.45 1.8999 16.9V2.90002C1.8999 2.35002 2.3499 1.90002 2.8999 1.90002H6.8999C7.4499 1.90002 7.8999 1.45002 7.8999 0.900024C7.8999 0.350024 7.4499 -0.0999756 6.8999 -0.0999756H2.8999C1.2499 -0.0999756 -0.100098 1.25002 -0.100098 2.90002V16.9C-0.100098 18.55 1.2499 19.9 2.8999 19.9H6.8999C7.4499 19.9 7.8999 19.45 7.8999 18.9C7.8999 18.35 7.4499 17.9 6.8999 17.9Z" fill="#909090"/>
<path id="Vector_2" d="M19.8199 10.28C19.9199 10.04 19.9199 9.75996 19.8199 9.51996C19.7699 9.39996 19.6999 9.28996 19.5999 9.18996L14.5999 4.18996C14.2099 3.79996 13.5799 3.79996 13.1899 4.18996C12.7999 4.57996 12.7999 5.20996 13.1899 5.59996L16.4899 8.89996H6.8999C6.3499 8.89996 5.8999 9.34996 5.8999 9.89996C5.8999 10.45 6.3499 10.9 6.8999 10.9H16.4899L13.1999 14.19C12.8099 14.58 12.8099 15.21 13.1999 15.6C13.3999 15.8 13.6499 15.89 13.9099 15.89C14.1699 15.89 14.4199 15.79 14.6199 15.6L19.6199 10.6C19.6999 10.52 19.7699 10.4 19.8199 10.28Z" fill="#909090"/>
</g>
</svg>
