<svg width="20" height="20" viewBox="0 0 20 20" fill="none" xmlns="http://www.w3.org/2000/svg">
<path d="M9.99979 12.22C11.2259 12.22 12.2198 11.2261 12.2198 10C12.2198 8.77396 11.2259 7.78003 9.99979 7.78003C8.77371 7.78003 7.77979 8.77396 7.77979 10C7.77979 11.2261 8.77371 12.22 9.99979 12.22Z" fill="#909090"/>
<path d="M9.99979 4.44C11.2259 4.44 12.2198 3.44607 12.2198 2.22C12.2198 0.993928 11.2259 0 9.99979 0C8.77371 0 7.77979 0.993928 7.77979 2.22C7.77979 3.44607 8.77371 4.44 9.99979 4.44Z" fill="#909090"/>
<path d="M9.99979 20.0001C11.2259 20.0001 12.2198 19.0061 12.2198 17.7801C12.2198 16.554 11.2259 15.5601 9.99979 15.5601C8.77371 15.5601 7.77979 16.554 7.77979 17.7801C7.77979 19.0061 8.77371 20.0001 9.99979 20.0001Z" fill="#909090"/>
</svg>
