<svg width="20" height="20" viewBox="0 0 20 20" fill="none" xmlns="http://www.w3.org/2000/svg">
<g clip-path="url(#clip0_1120_717)">
<path d="M9.08 3.11999C8.78 2.97999 8.42 3.01999 8.16 3.21999L4.04 6.51999H0.86C0.38 6.51999 0 6.91999 0 7.39999V12.6C0 13.08 0.38 13.46 0.86 13.46H4.04L8.14 16.74C8.3 16.86 8.48 16.94 8.68 16.94C8.8 16.94 8.94 16.92 9.06 16.86C9.36 16.72 9.56 16.42 9.56 16.08V3.91999C9.56 3.57999 9.38 3.27999 9.08 3.11999ZM7.82 14.28L4.9 11.92C4.74 11.8 4.56 11.72 4.36 11.72H1.76V8.25999H4.36C4.56 8.25999 4.74 8.19999 4.9 8.05999L7.84 5.71999V14.28H7.82Z" fill="#909090"/>
<path d="M17.7601 9.9999L19.7601 7.9999C20.1001 7.6599 20.1001 7.1199 19.7601 6.7799C19.4201 6.4399 18.8801 6.4399 18.5401 6.7799L16.5401 8.7799L14.5401 6.7799C14.2001 6.4399 13.6601 6.4399 13.3201 6.7799C12.9801 7.1199 12.9801 7.6599 13.3201 7.9999L15.3201 9.9999L13.3201 11.9999C12.9801 12.3399 12.9801 12.8799 13.3201 13.2199C13.4801 13.3799 13.7201 13.4799 13.9401 13.4799C14.1601 13.4799 14.3801 13.3999 14.5601 13.2199L16.5601 11.2199L18.5601 13.2199C18.7201 13.3799 18.9601 13.4799 19.1801 13.4799C19.4001 13.4799 19.6201 13.3999 19.8001 13.2199C20.1401 12.8799 20.1401 12.3399 19.8001 11.9999L17.7601 9.9999Z" fill="#909090"/>
</g>
<defs>
<clipPath id="clip0_1120_717">
<rect width="20" height="20" fill="white"/>
</clipPath>
</defs>
</svg>
