<svg width="20" height="20" viewBox="0 0 20 20" fill="none" xmlns="http://www.w3.org/2000/svg">
<g id="Icons / send" clip-path="url(#clip0_1120_666)">
<path id="Vector (Stroke)" fill-rule="evenodd" clip-rule="evenodd" d="M18.9225 1.07733C19.2479 1.40277 19.2479 1.9304 18.9225 2.25584L9.75584 11.4225C9.4304 11.7479 8.90277 11.7479 8.57733 11.4225C8.25189 11.0971 8.25189 10.5694 8.57733 10.244L17.744 1.07733C18.0694 0.751893 18.5971 0.751893 18.9225 1.07733Z" fill="#909090"/>
<path id="Vector (Stroke)_2" fill-rule="evenodd" clip-rule="evenodd" d="M18.9225 1.07735C19.1489 1.30372 19.2256 1.63974 19.1198 1.9419L13.2865 18.6086C13.1736 18.9311 12.8753 19.152 12.5339 19.1659C12.1925 19.1798 11.8772 18.984 11.7384 18.6717L8.53525 11.4646L1.32814 8.26145C1.01591 8.12268 0.820021 7.80737 0.833949 7.46597C0.847877 7.12457 1.0688 6.82627 1.3913 6.71339L18.058 0.88006C18.3601 0.774305 18.6961 0.850988 18.9225 1.07735ZM3.92582 7.59211L9.50504 10.0718C9.69357 10.1556 9.84431 10.3063 9.9281 10.4948L12.4078 16.074L16.9749 3.02492L3.92582 7.59211Z" fill="#909090"/>
</g>
<defs>
<clipPath id="clip0_1120_666">
<rect width="20" height="20" fill="white"/>
</clipPath>
</defs>
</svg>
