<svg  viewBox="0 0 20 20" fill="none" xmlns="http://www.w3.org/2000/svg">
<g id="Icons / user" clip-path="url(#clip0_13_6067)">
<path id="Vector" d="M16.9704 2.83002C15.0804 0.940024 12.5704 -0.0999756 9.90039 -0.0999756C7.23039 -0.0999756 4.72039 0.940024 2.83039 2.83002C0.940391 4.72002 -0.0996094 7.23002 -0.0996094 9.90002C-0.0996094 12.57 0.940391 15.08 2.83039 16.97C4.72039 18.86 7.23039 19.9 9.90039 19.9C12.5704 19.9 15.0804 18.86 16.9704 16.97C18.8604 15.08 19.9004 12.57 19.9004 9.90002C19.9004 7.23002 18.8604 4.72002 16.9704 2.83002ZM9.90039 6.15002C11.3104 6.15002 12.4504 7.29002 12.4504 8.70002C12.4504 10.11 11.3104 11.25 9.90039 11.25C8.49039 11.25 7.35039 10.11 7.35039 8.70002C7.35039 7.29002 8.49039 6.15002 9.90039 6.15002ZM9.90039 13.33C11.9204 13.33 13.6404 14.7 14.1204 16.62C12.8604 17.42 11.4004 17.84 9.90039 17.84C8.40039 17.84 6.95039 17.42 5.68039 16.62C6.16039 14.69 7.88039 13.33 9.90039 13.33ZM14.2004 12.91C13.8504 12.59 13.4604 12.31 13.0504 12.08C13.9804 11.21 14.5204 10 14.5204 8.70002C14.5204 6.15002 12.4504 4.08002 9.90039 4.08002C7.35039 4.08002 5.28039 6.15002 5.28039 8.70002C5.28039 10 5.82039 11.21 6.75039 12.08C6.34039 12.31 5.95039 12.59 5.60039 12.91C4.90039 13.54 4.35039 14.32 3.99039 15.18C2.70039 13.73 1.97039 11.85 1.97039 9.90002C1.97039 5.53002 5.53039 1.97002 9.90039 1.97002C14.2704 1.97002 17.8304 5.53002 17.8304 9.90002C17.8304 11.85 17.1004 13.73 15.8104 15.18C15.4504 14.32 14.9004 13.55 14.2004 12.91Z" fill="#909090"/>
</g>
<defs>
<clipPath id="clip0_13_6067">
<rect width="20" height="20" fill="white"/>
</clipPath>
</defs>
</svg>
